<svg xmlns:xlink="http://www.w3.org/1999/xlink" version="1.1" style="font-family:'lucida grande', 'lucida sans unicode', arial, helvetica, sans-serif;font-size:12px;" xmlns="http://www.w3.org/2000/svg" width="600" height="480"><desc>Created with Highcharts 4.2.5</desc><defs><clipPath id="highcharts-16"><rect x="0" y="0" width="493" height="337"></rect></clipPath><linearGradient x1="0" y1="0" x2="0" y2="1" id="highcharts-17"><stop offset="0" stop-color="#3BB778" stop-opacity="1"></stop><stop offset="1" stop-color="rgb(59,183,120)" stop-opacity="0"></stop></linearGradient><linearGradient x1="0" y1="0" x2="0" y2="1" id="highcharts-18"><stop offset="0" stop-color="#7cb5ec" stop-opacity="1"></stop><stop offset="1" stop-color="rgb(124,181,236)" stop-opacity="0"></stop></linearGradient><clipPath id="highcharts-19"><rect x="0" y="0" width="247" height="600"></rect></clipPath><clipPath id="highcharts-20"><rect x="247" y="0" width="164" height="600"></rect></clipPath></defs><rect x="0" y="0" width="600" height="480" fill="#FFFFFF" class=" highcharts-background"></rect><g class="highcharts-grid"></g><g class="highcharts-grid"><path fill="none" d="M 57 442.5 L 550 442.5" stroke="#D8D8D8" stroke-width="1" opacity="1"></path><path fill="none" d="M 57 375.5 L 550 375.5" stroke="#D8D8D8" stroke-width="1" opacity="1"></path><path fill="none" d="M 57 307.5 L 550 307.5" stroke="#D8D8D8" stroke-width="1" opacity="1"></path><path fill="none" d="M 57 240.5 L 550 240.5" stroke="#D8D8D8" stroke-width="1" opacity="1"></path><path fill="none" d="M 57 172.5 L 550 172.5" stroke="#D8D8D8" stroke-width="1" opacity="1"></path><path fill="none" d="M 57 104.5 L 550 104.5" stroke="#D8D8D8" stroke-width="1" opacity="1"></path></g><g class="highcharts-axis"><path fill="none" d="M 220.5 442 L 220.5 452" stroke="#C0D0E0" stroke-width="1" opacity="1"></path><path fill="none" d="M 385.5 442 L 385.5 452" stroke="#C0D0E0" stroke-width="1" opacity="1"></path><path fill="none" d="M 550.5 442 L 550.5 452" stroke="#C0D0E0" stroke-width="1" opacity="1"></path><path fill="none" d="M 56.5 442 L 56.5 452" stroke="#C0D0E0" stroke-width="1" opacity="1"></path><path fill="none" d="M 57 442.5 L 550 442.5" stroke="#C0D0E0" stroke-width="1"></path></g><g class="highcharts-axis"></g><g class="highcharts-series-group"><g class="highcharts-series highcharts-series-0" transform="translate(57,105) scale(1 1)" clip-path="url(#highcharts-16)"><path fill="url(#highcharts-17)" d="M 82.166666666667 185.35 L 246.5 202.2 L 410.83333333333 0 L 410.83333333333 337 L 246.5 337 L 82.166666666667 337" visibility="hidden"></path><path fill="url(#highcharts-18)" d="M 82.166666666667 185.35 L 246.5 202.2 L 410.83333333333 0 L 410.83333333333 337 L 246.5 337 L 82.166666666667 337" clip-path="url(#highcharts-19)"></path><path fill="url(#highcharts-17)" d="M 82.166666666667 185.35 L 246.5 202.2 L 410.83333333333 0 L 410.83333333333 337 L 246.5 337 L 82.166666666667 337" clip-path="url(#highcharts-20)"></path><path fill="none" d="M 82.166666666667 185.35 L 246.5 202.2 L 410.83333333333 0" stroke="#3BB778" stroke-width="1" stroke-linejoin="round" stroke-linecap="round" visibility="hidden"></path><path fill="none" d="M 82.166666666667 185.35 L 246.5 202.2 L 410.83333333333 0" stroke="#7cb5ec" stroke-width="1" stroke-linejoin="round" stroke-linecap="round" clip-path="url(#highcharts-19)"></path><path fill="none" d="M 82.166666666667 185.35 L 246.5 202.2 L 410.83333333333 0" stroke="#3BB778" stroke-width="1" stroke-linejoin="round" stroke-linecap="round" clip-path="url(#highcharts-20)"></path></g><g class="highcharts-markers highcharts-series-0" transform="translate(57,105) scale(1 1)" clip-path="none"><path fill="#3BB778" d="M 410 -2 C 412.664 -2 412.664 2 410 2 C 407.336 2 407.336 -2 410 -2 Z"></path><path fill="#3BB778" d="M 246 200.2 C 248.664 200.2 248.664 204.2 246 204.2 C 243.336 204.2 243.336 200.2 246 200.2 Z"></path><path fill="#7cb5ec" d="M 82 183.35 C 84.664 183.35 84.664 187.35 82 187.35 C 79.336 187.35 79.336 183.35 82 183.35 Z"></path></g></g><text x="300" text-anchor="middle" class="highcharts-title" style="color:#333333;font-size:18px;fill:#333333;width:536px;" y="24"><tspan>Provider Utilization Over Time</tspan></text><text x="300" text-anchor="middle" class="highcharts-subtitle" style="color:#555555;fill:#555555;width:536px;" y="48"><tspan>Click and drag in the plot area to zoom in</tspan></text><g class="highcharts-data-labels highcharts-series-0" visibility="visible" transform="translate(57,105) scale(1 1)" opacity="1"><g style="" transform="translate(200,127)"><text x="5" style="font-size:11px;font-weight:bold;color:#000000;text-shadow:0 0 6px #ffffff, 0 0 3px #ffffff;fill:#000000;text-rendering:geometricprecision;" y="16"><tspan>Added QueueDr!</tspan></text></g></g><g class="highcharts-axis-labels highcharts-xaxis-labels"><text x="139.16666666666669" style="color:#606060;cursor:default;font-size:11px;fill:#606060;width:170px;text-overflow:clip;" text-anchor="middle" transform="translate(0,0)" y="461" opacity="1"></text><text x="303.5" style="color:#606060;cursor:default;font-size:11px;fill:#606060;width:170px;text-overflow:clip;" text-anchor="middle" transform="translate(0,0)" y="461" opacity="1"></text><text x="467.8333333333333" style="color:#606060;cursor:default;font-size:11px;fill:#606060;width:170px;text-overflow:clip;" text-anchor="middle" transform="translate(0,0)" y="461" opacity="1">Dec</text></g><g class="highcharts-axis-labels highcharts-yaxis-labels"><text x="42" style="color:#606060;cursor:default;font-size:11px;fill:#606060;width:188px;text-overflow:clip;" text-anchor="end" transform="translate(0,0)" y="446" opacity="1">0%</text><text x="42" style="color:#606060;cursor:default;font-size:11px;fill:#606060;width:188px;text-overflow:clip;" text-anchor="end" transform="translate(0,0)" y="378" opacity="1">20%</text><text x="42" style="color:#606060;cursor:default;font-size:11px;fill:#606060;width:188px;text-overflow:clip;" text-anchor="end" transform="translate(0,0)" y="311" opacity="1">40%</text><text x="42" style="color:#606060;cursor:default;font-size:11px;fill:#606060;width:188px;text-overflow:clip;" text-anchor="end" transform="translate(0,0)" y="243" opacity="1">60%</text><text x="42" style="color:#606060;cursor:default;font-size:11px;fill:#606060;width:188px;text-overflow:clip;" text-anchor="end" transform="translate(0,0)" y="176" opacity="1">80%</text><text x="42" style="color:#606060;cursor:default;font-size:11px;fill:#606060;width:188px;text-overflow:clip;" text-anchor="end" transform="translate(0,0)" y="109" opacity="1">100%</text></g><g class="highcharts-tooltip" style="cursor:default;padding:0;pointer-events:none;white-space:nowrap;" transform="translate(0,-9999)"><path fill="none" d="M 3.5 0.5 L 13.5 0.5 C 16.5 0.5 16.5 0.5 16.5 3.5 L 16.5 13.5 C 16.5 16.5 16.5 16.5 13.5 16.5 L 3.5 16.5 C 0.5 16.5 0.5 16.5 0.5 13.5 L 0.5 3.5 C 0.5 0.5 0.5 0.5 3.5 0.5"  stroke="black" stroke-opacity="0.049999999999999996" stroke-width="5" transform="translate(1, 1)"></path><path fill="none" d="M 3.5 0.5 L 13.5 0.5 C 16.5 0.5 16.5 0.5 16.5 3.5 L 16.5 13.5 C 16.5 16.5 16.5 16.5 13.5 16.5 L 3.5 16.5 C 0.5 16.5 0.5 16.5 0.5 13.5 L 0.5 3.5 C 0.5 0.5 0.5 0.5 3.5 0.5"  stroke="black" stroke-opacity="0.09999999999999999" stroke-width="3" transform="translate(1, 1)"></path><path fill="none" d="M 3.5 0.5 L 13.5 0.5 C 16.5 0.5 16.5 0.5 16.5 3.5 L 16.5 13.5 C 16.5 16.5 16.5 16.5 13.5 16.5 L 3.5 16.5 C 0.5 16.5 0.5 16.5 0.5 13.5 L 0.5 3.5 C 0.5 0.5 0.5 0.5 3.5 0.5"  stroke="black" stroke-opacity="0.15" stroke-width="1" transform="translate(1, 1)"></path><path fill="rgb(249, 249, 249)" fill-opacity=" .85" d="M 3.5 0.5 L 13.5 0.5 C 16.5 0.5 16.5 0.5 16.5 3.5 L 16.5 13.5 C 16.5 16.5 16.5 16.5 13.5 16.5 L 3.5 16.5 C 0.5 16.5 0.5 16.5 0.5 13.5 L 0.5 3.5 C 0.5 0.5 0.5 0.5 3.5 0.5"></path><text x="8" style="font-size:12px;color:#333333;fill:#333333;" y="20"></text></g><text x="590" text-anchor="end" style="cursor:pointer;color:#909090;font-size:9px;fill:#909090;" y="475">Highcharts.com</text></svg>
